<svg width="80" height="80" viewBox="0 0 80 80" fill="none" xmlns="http://www.w3.org/2000/svg">
<g clip-path="url(#clip0_13077_630)">
<rect width="80" height="80" rx="40" fill="#161616"/>
<path d="M33.1188 28.4904C23.4895 28.4904 25.1014 20 25.1014 20H45.6404C61.9356 20 62.3031 60 45.6404 60H25.0784L25.132 37.8118H31.7941V51.5098H44.2659C52.961 51.5098 53.0107 28.4904 42.8607 28.4904H33.115H33.1188Z" fill="white"/>
</g>
<defs>
<clipPath id="clip0_13077_630">
<path d="M0 40C0 17.9086 17.9086 0 40 0C62.0914 0 80 17.9086 80 40C80 62.0914 62.0914 80 40 80C17.9086 80 0 62.0914 0 40Z" fill="white"/>
</clipPath>
</defs>
</svg>
