<svg width="194" height="44" viewBox="0 0 194 44" fill="none" xmlns="http://www.w3.org/2000/svg">
<path d="M43.1455 42.0799V1.75992H60.1695C60.5615 1.75992 61.0842 1.77859 61.7375 1.81592C62.4095 1.83459 63.0068 1.89059 63.5295 1.98392C65.9375 2.35725 67.9068 3.15059 69.4375 4.36392C70.9868 5.57725 72.1255 7.10792 72.8535 8.95592C73.5815 10.7853 73.9455 12.8293 73.9455 15.0879C73.9455 18.4666 73.1055 21.3599 71.4255 23.7679C69.7455 26.1573 67.1135 27.6319 63.5295 28.1919L60.1695 28.4159H50.7615V42.0799H43.1455ZM65.8815 42.0799L57.9295 25.6719L65.7695 24.1599L74.5055 42.0799H65.8815ZM50.7615 21.3039H59.8335C60.2255 21.3039 60.6548 21.2853 61.1215 21.2479C61.5882 21.2106 62.0175 21.1359 62.4095 21.0239C63.4362 20.7439 64.2295 20.2773 64.7895 19.6239C65.3495 18.9519 65.7322 18.2146 65.9375 17.4119C66.1615 16.5906 66.2735 15.8159 66.2735 15.0879C66.2735 14.3599 66.1615 13.5946 65.9375 12.7919C65.7322 11.9706 65.3495 11.2333 64.7895 10.5799C64.2295 9.90792 63.4362 9.43192 62.4095 9.15192C62.0175 9.03992 61.5882 8.96525 61.1215 8.92792C60.6548 8.89059 60.2255 8.87192 59.8335 8.87192H50.7615V21.3039Z" fill="#161616"/>
<path d="M97.9651 42.9199C93.9331 42.9199 90.4518 42.0426 87.5211 40.2879C84.6091 38.5333 82.3598 36.0786 80.7731 32.9239C79.2051 29.7693 78.4211 26.1013 78.4211 21.9199C78.4211 17.7386 79.2051 14.0706 80.7731 10.9159C82.3598 7.76126 84.6091 5.30659 87.5211 3.55192C90.4518 1.79726 93.9331 0.919922 97.9651 0.919922C101.997 0.919922 105.469 1.79726 108.381 3.55192C111.312 5.30659 113.561 7.76126 115.129 10.9159C116.716 14.0706 117.509 17.7386 117.509 21.9199C117.509 26.1013 116.716 29.7693 115.129 32.9239C113.561 36.0786 111.312 38.5333 108.381 40.2879C105.469 42.0426 101.997 42.9199 97.9651 42.9199ZM97.9651 35.7519C100.522 35.7893 102.65 35.2386 104.349 34.0999C106.048 32.9613 107.317 31.3466 108.157 29.2559C109.016 27.1653 109.445 24.7199 109.445 21.9199C109.445 19.1199 109.016 16.6933 108.157 14.6399C107.317 12.5866 106.048 10.9906 104.349 9.85192C102.65 8.71326 100.522 8.12525 97.9651 8.08792C95.4078 8.05059 93.2798 8.60125 91.5811 9.73992C89.8825 10.8786 88.6038 12.4933 87.7451 14.5839C86.9051 16.6746 86.4851 19.1199 86.4851 21.9199C86.4851 24.7199 86.9051 27.1466 87.7451 29.1999C88.6038 31.2533 89.8825 32.8493 91.5811 33.9879C93.2798 35.1266 95.4078 35.7146 97.9651 35.7519Z" fill="#161616"/>
<path d="M121.979 42.0799V41.1279L141.131 8.87192H123.659V1.75992H154.459V2.71192L135.419 34.9119H153.899V42.0799H121.979Z" fill="#161616"/>
<path d="M171.017 42.0799V25.6719L157.241 1.75992H166.145L174.881 16.9359L183.617 1.75992H192.521L178.745 25.6719V42.0799H171.017Z" fill="#161616"/>
<path d="M9.59732 9.57043C-0.0320046 9.57043 1.57992 1.08008 1.57992 1.08008H22.1189C38.4141 1.08008 38.7817 43.0801 22.1189 43.0801H1.55693L1.61054 17.8919H8.27259V34.5898H20.7444C29.4395 34.5898 29.4893 9.57043 19.3392 9.57043H9.59349H9.59732Z" fill="#161616"/>
</svg>
