<svg width="193" height="44" viewBox="0 0 193 44" fill="none" xmlns="http://www.w3.org/2000/svg">
<path d="M42.6455 42.0799V1.75992H59.6695C60.0615 1.75992 60.5842 1.77859 61.2375 1.81592C61.9095 1.83459 62.5068 1.89059 63.0295 1.98392C65.4375 2.35725 67.4068 3.15059 68.9375 4.36392C70.4868 5.57725 71.6255 7.10792 72.3535 8.95592C73.0815 10.7853 73.4455 12.8293 73.4455 15.0879C73.4455 18.4666 72.6055 21.3599 70.9255 23.7679C69.2455 26.1573 66.6135 27.6319 63.0295 28.1919L59.6695 28.4159H50.2615V42.0799H42.6455ZM65.3815 42.0799L57.4295 25.6719L65.2695 24.1599L74.0055 42.0799H65.3815ZM50.2615 21.3039H59.3335C59.7255 21.3039 60.1548 21.2853 60.6215 21.2479C61.0882 21.2106 61.5175 21.1359 61.9095 21.0239C62.9362 20.7439 63.7295 20.2773 64.2895 19.6239C64.8495 18.9519 65.2322 18.2146 65.4375 17.4119C65.6615 16.5906 65.7735 15.8159 65.7735 15.0879C65.7735 14.3599 65.6615 13.5946 65.4375 12.7919C65.2322 11.9706 64.8495 11.2333 64.2895 10.5799C63.7295 9.90792 62.9362 9.43192 61.9095 9.15192C61.5175 9.03992 61.0882 8.96525 60.6215 8.92792C60.1548 8.89059 59.7255 8.87192 59.3335 8.87192H50.2615V21.3039Z" fill="white"/>
<path d="M97.4651 42.9199C93.4331 42.9199 89.9518 42.0426 87.0211 40.2879C84.1091 38.5333 81.8598 36.0786 80.2731 32.9239C78.7051 29.7693 77.9211 26.1013 77.9211 21.9199C77.9211 17.7386 78.7051 14.0706 80.2731 10.9159C81.8598 7.76126 84.1091 5.30659 87.0211 3.55192C89.9518 1.79726 93.4331 0.919922 97.4651 0.919922C101.497 0.919922 104.969 1.79726 107.881 3.55192C110.812 5.30659 113.061 7.76126 114.629 10.9159C116.216 14.0706 117.009 17.7386 117.009 21.9199C117.009 26.1013 116.216 29.7693 114.629 32.9239C113.061 36.0786 110.812 38.5333 107.881 40.2879C104.969 42.0426 101.497 42.9199 97.4651 42.9199ZM97.4651 35.7519C100.022 35.7893 102.15 35.2386 103.849 34.0999C105.548 32.9613 106.817 31.3466 107.657 29.2559C108.516 27.1653 108.945 24.7199 108.945 21.9199C108.945 19.1199 108.516 16.6933 107.657 14.6399C106.817 12.5866 105.548 10.9906 103.849 9.85192C102.15 8.71326 100.022 8.12525 97.4651 8.08792C94.9078 8.05059 92.7798 8.60125 91.0811 9.73992C89.3825 10.8786 88.1038 12.4933 87.2451 14.5839C86.4051 16.6746 85.9851 19.1199 85.9851 21.9199C85.9851 24.7199 86.4051 27.1466 87.2451 29.1999C88.1038 31.2533 89.3825 32.8493 91.0811 33.9879C92.7798 35.1266 94.9078 35.7146 97.4651 35.7519Z" fill="white"/>
<path d="M121.479 42.0799V41.1279L140.631 8.87192H123.159V1.75992H153.959V2.71192L134.919 34.9119H153.399V42.0799H121.479Z" fill="white"/>
<path d="M170.517 42.0799V25.6719L156.741 1.75992H165.645L174.381 16.9359L183.117 1.75992H192.021L178.245 25.6719V42.0799H170.517Z" fill="white"/>
<path d="M9.09732 9.57043C-0.532005 9.57043 1.07992 1.08008 1.07992 1.08008H21.6189C37.9141 1.08008 38.2817 43.0801 21.6189 43.0801H1.05693L1.11054 17.8919H7.77259V34.5898H20.2444C28.9395 34.5898 28.9893 9.57043 18.8392 9.57043H9.09349H9.09732Z" fill="white"/>
</svg>
